<?xml version="1.0" standalone="no"?>
<!DOCTYPE svg PUBLIC "-//W3C//DTD SVG 20010904//EN"
 "http://www.w3.org/TR/2001/REC-SVG-20010904/DTD/svg10.dtd">
<svg version="1.0" xmlns="http://www.w3.org/2000/svg"
 width="719.000000pt" height="685.000000pt" viewBox="0 0 719.000000 685.000000"
 preserveAspectRatio="xMidYMid meet">

<g transform="translate(0.000000,685.000000) scale(0.100000,-0.100000)"
fill="#000000" stroke="none">
<path d="M2160 6829 c-25 -11 -54 -29 -65 -39 -11 -11 -40 -26 -65 -35 -24 -9
-51 -22 -60 -30 -9 -8 -35 -21 -58 -29 -22 -8 -74 -37 -114 -64 -40 -26 -95
-56 -122 -66 -26 -10 -62 -31 -80 -46 -17 -15 -47 -35 -66 -45 -71 -37 -231
-184 -428 -394 -168 -180 -209 -229 -244 -296 -23 -44 -56 -97 -73 -118 -43
-50 -183 -362 -228 -507 -20 -63 -52 -209 -72 -325 -36 -209 -37 -212 -35
-475 1 -146 2 -276 3 -289 2 -19 -7 -29 -42 -48 -25 -13 -52 -29 -60 -37 -9
-7 -31 -21 -48 -30 -63 -32 -182 -146 -210 -199 -49 -97 -22 -264 55 -344 l38
-38 -37 -49 c-44 -58 -59 -110 -59 -203 0 -99 15 -139 81 -225 l59 -78 -33
-14 c-52 -21 -108 -76 -133 -131 -20 -42 -24 -66 -24 -156 0 -121 12 -154 90
-249 129 -157 257 -260 325 -260 11 0 53 -16 94 -35 40 -19 91 -38 114 -41 23
-3 71 -19 107 -34 71 -30 196 -71 275 -90 28 -6 109 -38 181 -70 72 -33 144
-62 160 -66 16 -3 47 -17 70 -30 22 -12 63 -28 90 -35 29 -7 76 -31 114 -59
36 -26 90 -60 120 -75 30 -15 72 -43 94 -61 21 -18 74 -51 117 -74 43 -22 81
-45 85 -51 9 -15 187 -129 201 -129 6 0 49 -30 95 -66 45 -36 106 -77 133 -91
28 -14 67 -40 88 -58 21 -18 65 -47 99 -65 33 -18 106 -72 162 -119 55 -48
118 -98 139 -110 52 -32 185 -188 197 -231 14 -52 125 -244 162 -281 61 -61
107 -74 253 -74 121 0 133 2 180 27 28 14 60 37 71 50 32 34 124 194 154 265
31 76 126 192 189 232 25 16 86 63 135 106 48 42 99 80 112 85 30 12 170 106
179 120 3 6 21 16 38 24 18 8 57 35 87 61 29 26 77 57 105 69 27 13 72 41 98
64 27 23 54 42 62 42 7 0 53 30 102 66 48 37 103 73 122 81 18 8 55 29 81 46
27 18 78 50 115 72 36 22 86 57 111 77 26 22 68 44 102 54 31 9 105 41 164 70
65 32 129 57 165 63 32 5 83 21 113 35 30 14 63 26 73 26 10 0 39 11 66 24 26
14 78 32 115 40 36 9 84 25 106 36 22 11 63 25 91 30 28 5 110 33 182 62 l132
51 100 101 c89 90 104 111 140 191 37 84 40 96 40 185 0 85 -3 100 -28 145
-31 56 -78 111 -117 136 l-25 17 53 60 c69 80 92 131 92 207 0 91 -25 194 -60
243 l-30 42 45 65 c49 73 60 110 59 205 -1 83 -18 133 -61 181 -36 40 -237
188 -285 209 l-26 13 -4 351 c-4 305 -6 357 -22 396 -9 25 -24 93 -32 152 -8
66 -23 127 -38 160 -13 29 -29 82 -36 118 -6 36 -24 88 -40 116 -16 28 -32 68
-35 88 -4 20 -17 51 -30 69 -12 18 -34 59 -48 91 -15 32 -41 74 -57 93 -17 19
-48 69 -69 111 -29 57 -78 121 -189 247 -175 199 -273 290 -397 369 -49 32
-108 75 -130 96 -22 21 -69 55 -105 76 -111 63 -350 184 -364 184 -7 0 -33 15
-56 34 -59 46 -113 60 -208 53 -105 -8 -167 -32 -217 -82 -68 -68 -78 -107
-71 -281 3 -82 9 -451 12 -820 5 -584 4 -688 -10 -804 -9 -74 -19 -136 -21
-138 -2 -3 -15 2 -28 11 -13 8 -43 21 -68 28 -24 7 -69 27 -99 45 -33 19 -141
59 -269 99 -269 83 -338 91 -616 77 -173 -9 -210 -14 -272 -36 -40 -14 -87
-26 -103 -26 -30 0 -424 -154 -482 -188 -15 -9 -29 -14 -31 -11 -2 2 -11 63
-20 134 -22 187 -23 1047 -2 1449 14 266 14 303 1 350 -18 60 -73 129 -125
155 -87 44 -236 54 -311 20z m127 -351 c7 -9 8 -117 2 -313 -11 -408 -10
-1050 1 -1273 6 -127 15 -205 29 -255 11 -40 25 -108 31 -152 8 -61 18 -93 44
-135 45 -74 72 -86 136 -65 26 9 54 23 61 32 7 8 36 26 64 39 27 13 66 34 85
45 105 64 131 78 166 89 22 7 55 23 74 36 19 12 53 25 74 29 22 4 61 17 87 31
26 13 80 28 121 34 40 6 100 20 133 31 83 26 147 34 174 20 l21 -12 -2 -2117
c-3 -2084 -3 -2117 -22 -2117 -21 0 -68 71 -92 138 -38 106 -204 283 -394 419
-36 26 -73 54 -82 62 -23 20 -188 135 -233 161 -18 12 -43 29 -55 40 -12 11
-41 31 -65 45 -47 26 -173 110 -215 141 -14 10 -38 26 -53 35 -16 8 -49 31
-74 50 -24 19 -49 34 -55 34 -5 0 -28 13 -51 29 -23 15 -71 47 -107 69 -36 23
-76 50 -90 60 -14 11 -41 27 -60 37 -19 10 -48 28 -63 41 -16 13 -33 24 -38
24 -5 0 -32 16 -60 35 -28 19 -59 35 -68 35 -9 0 -36 11 -60 25 -24 14 -68 32
-98 41 -29 9 -73 27 -96 40 -23 13 -51 24 -62 24 -11 0 -47 13 -81 29 -33 16
-84 34 -113 40 -28 6 -73 22 -99 35 -26 13 -67 27 -92 31 -25 4 -67 18 -93 32
-26 13 -73 29 -104 34 -31 6 -77 21 -102 34 -25 13 -71 29 -103 35 -48 9 -66
20 -121 70 -124 114 -115 178 29 208 75 16 203 88 210 119 8 30 -15 64 -188
271 -71 84 -128 157 -128 162 0 15 43 39 81 46 59 11 217 92 224 115 9 27 -29
81 -108 155 -34 32 -90 84 -125 116 -34 32 -62 67 -62 77 0 18 27 39 123 97
26 16 88 55 137 86 81 52 90 62 101 100 9 36 8 60 -7 138 -26 131 -26 419 -1
540 10 47 24 141 32 210 8 79 21 142 34 171 11 25 27 78 35 116 9 39 24 86 35
104 10 19 24 52 31 74 7 22 21 52 31 66 10 14 26 48 37 76 11 29 29 64 41 79
11 15 21 32 21 38 0 6 13 27 28 46 15 19 38 52 50 74 82 141 366 428 553 558
30 21 68 47 84 58 53 37 198 120 265 151 36 17 83 40 104 51 71 37 117 46 133
26z m2791 -33 c81 -38 106 -51 187 -95 94 -51 150 -84 192 -115 23 -16 58 -41
78 -55 110 -75 264 -218 384 -355 81 -93 100 -118 177 -234 64 -95 184 -325
184 -350 0 -7 12 -34 26 -62 14 -28 30 -79 36 -113 6 -33 21 -82 34 -107 16
-33 26 -78 34 -155 6 -60 20 -158 32 -219 27 -146 29 -366 3 -521 -21 -128
-16 -175 23 -212 26 -24 103 -74 212 -137 156 -91 156 -89 3 -225 -124 -110
-183 -177 -183 -210 0 -22 29 -44 80 -61 19 -7 47 -20 61 -30 14 -10 48 -23
74 -29 64 -14 85 -27 85 -51 0 -19 -28 -55 -195 -253 -114 -135 -134 -177 -97
-208 29 -25 164 -86 207 -93 128 -22 134 -87 16 -203 -53 -52 -68 -61 -128
-76 -37 -10 -81 -26 -98 -36 -16 -10 -57 -23 -89 -29 -33 -6 -78 -20 -99 -31
-21 -12 -69 -27 -107 -35 -37 -8 -83 -23 -101 -34 -19 -11 -56 -25 -84 -32
-27 -7 -70 -22 -96 -35 -25 -12 -63 -26 -85 -29 -21 -4 -70 -23 -108 -41 -39
-19 -76 -34 -85 -34 -8 0 -33 -11 -56 -24 -23 -14 -62 -30 -87 -36 -26 -7 -55
-20 -66 -30 -10 -10 -37 -28 -58 -39 -21 -12 -53 -32 -70 -44 -18 -12 -45 -30
-60 -39 -33 -20 -118 -75 -184 -118 -25 -17 -58 -38 -73 -48 -67 -41 -164
-103 -192 -122 -16 -12 -45 -31 -64 -43 -19 -12 -51 -33 -71 -47 -20 -14 -59
-39 -86 -57 -27 -18 -62 -41 -79 -53 -16 -11 -46 -32 -65 -45 -19 -13 -48 -32
-65 -41 -16 -9 -64 -42 -105 -74 -41 -31 -102 -76 -135 -101 -157 -116 -261
-213 -326 -304 -19 -28 -57 -94 -83 -148 -49 -101 -65 -118 -91 -97 -13 11
-15 266 -15 2116 l0 2104 25 16 c29 19 81 14 176 -16 32 -10 93 -24 135 -30
43 -5 93 -19 112 -30 18 -11 54 -25 80 -31 26 -6 65 -22 87 -34 22 -12 51 -26
65 -30 14 -4 67 -31 117 -59 51 -28 112 -61 135 -73 22 -12 57 -33 77 -47 20
-13 53 -29 75 -36 34 -11 41 -10 65 7 43 32 89 118 96 182 3 31 18 101 33 156
l27 100 1 872 c1 479 5 877 9 883 10 17 52 6 143 -35z"/>
</g>
</svg>
